<svg width="278" height="85" viewBox="0 0 278 85" fill="none" xmlns="http://www.w3.org/2000/svg">
<rect width="278" height="85" fill="#F5F5F5"/>
<g id="layer1">
<g id="g3359" filter="url(#filter0_i_10_2)">
<path id="path2429" fill-rule="evenodd" clip-rule="evenodd" d="M21.7139 0.965476C19.1745 7.64672 16.5286 14.0953 15.0146 20.8744C15.226 21.2711 15.4959 21.4417 15.8183 21.4153C17.9692 15.1603 19.9372 8.88176 23.072 2.23679C20.0876 11.7769 18.742 15.7828 16.9966 22.7098C17.1644 23.001 17.3476 23.2539 17.8421 23.2821C19.7897 16.8088 21.1625 10.558 24.4025 3.80726C22.5793 10.5942 20.3712 16.968 19.0052 24.249C19.1366 24.5146 19.2586 24.7945 19.8503 25.011C21.2666 18.2759 24.9108 7.17171 25.9284 5.39638L20.5038 26.8979C20.0806 28.5738 19.341 30.2202 17.3538 31.387C12.4692 49.1859 7.98182 82.367 7.83547 83.6288C7.70447 84.7724 5.21601 84.3603 4.35808 83.8196C2.54371 82.6731 1.03494 78.7924 1.31561 77.7149C2.62415 72.6827 12.4804 47.6681 15.2052 30.0501C15.2052 30.0501 13.4392 25.0863 13.4598 23.135C13.5096 18.6578 17.9842 6.59186 21.7139 0.965476Z" fill="#F89A44" stroke="#F89A44"/>
<path id="path3191" fill-rule="evenodd" clip-rule="evenodd" d="M25.9248 5.39486C24.9087 7.16957 21.2669 18.2755 19.8505 25.0106C19.6613 24.9415 19.5233 24.8628 19.4147 24.7831L20.7485 25.9225L25.9248 5.39486ZM24.4051 3.80327C21.1651 10.554 19.7884 16.809 17.8401 23.28C17.7525 23.2747 17.6804 23.2632 17.6098 23.2458L19.254 24.6465C19.1337 24.5154 19.07 24.3859 19.004 24.2546C20.3692 16.9712 22.5804 10.5909 24.4051 3.80327ZM23.073 2.23875C19.9383 8.88373 17.9687 15.1575 15.8178 21.4125C15.4962 21.4413 15.227 21.2677 15.0157 20.8711C16.5296 14.0919 19.1771 7.64807 21.7181 0.966216C18.6574 5.58268 15.0925 14.5308 13.8862 20.0697L17.0085 22.7342C17.0046 22.7277 17.0007 22.7212 16.9969 22.7148C18.7431 15.7848 20.0879 11.7765 23.073 2.23875Z" fill="url(#paint0_linear_10_2)"/>
<path id="path2431" fill-rule="evenodd" clip-rule="evenodd" d="M6.37858 84.3585C5.5809 83.6658 4.96006 82.4786 4.62441 82.4435C3.70895 82.3446 2.82058 81.6425 2.15699 80.9527C2.72202 82.13 3.5048 83.277 4.3604 83.816C4.79014 84.0887 5.62985 84.335 6.37858 84.3585Z" fill="#1A1A1A" fill-opacity="0.50196"/>
<path id="path3206" fill-rule="evenodd" clip-rule="evenodd" d="M16.2326 31.0254C16.4882 30.2915 15.5071 30.3868 15.1836 30.1814C12.4294 47.7897 2.61877 72.6982 1.31487 77.7179C1.22003 78.0838 1.33564 78.7693 1.59635 79.5655C2.02546 80.5324 2.61094 81.3466 3.08169 81.563C3.6168 81.81 4.7237 82.4895 4.82434 81.8224C5.45128 77.7036 16.1361 31.3012 16.2326 31.0254Z" fill="url(#paint1_linear_10_2)"/>
<path id="path3304" fill-rule="evenodd" clip-rule="evenodd" d="M20.7505 25.914L13.8281 20.3412C13.6009 21.4375 13.4697 22.3891 13.4606 23.132C13.4399 25.0833 15.2044 30.0477 15.2044 30.0477L15.1998 30.0656L17.5498 31.2692C19.3913 30.1122 20.096 28.5143 20.5046 26.8949L20.7505 25.914Z" fill="url(#paint2_radial_10_2)"/>
<path id="path3211" fill-rule="evenodd" clip-rule="evenodd" d="M19.6175 27.1532C18.14 26.3696 15.3708 24.091 15.1029 24.2719C14.9349 24.3839 17.7957 26.2659 19.3426 27.9294C19.6902 27.5701 19.6124 27.3767 19.6175 27.1532Z" fill="url(#paint3_linear_10_2)"/>
<path id="path3213" fill-rule="evenodd" clip-rule="evenodd" d="M17.2142 31.8934L16.361 30.809C12.549 46.8615 8.6281 64.879 4.76166 81.914C4.76166 81.914 5.72275 83.6816 6.29362 84.0051C6.63102 84.1943 7.14233 84.029 7.61051 84.0623C7.61206 84.0617 7.61438 84.0634 7.61515 84.0604C7.73591 83.9539 7.81478 83.8105 7.83469 83.6318C7.98105 82.3806 12.3832 49.8072 17.2142 31.8934Z" fill="url(#paint4_linear_10_2)"/>
<path id="path3218" fill-rule="evenodd" clip-rule="evenodd" d="M15.6905 30.1459C15.27 28.6685 15.0996 28.2262 14.8996 27.6088C14.8257 27.3792 15.5512 27.4546 15.8471 28.4584C16.3516 30.1694 15.7458 30.3456 15.6905 30.1459Z" fill="#F89A44"/>
<path id="path3220" fill-rule="evenodd" clip-rule="evenodd" d="M21.5293 1.4577C19.0929 6.9477 16.5663 12.1852 14.5148 19.1722C14.603 19.679 14.7377 20.1194 15.1857 20.1286C16.6839 13.7854 19.1405 7.71892 21.5293 1.4577Z" fill="url(#paint5_linear_10_2)"/>
<path id="path3225" fill-rule="evenodd" clip-rule="evenodd" d="M14.8683 25.0802C14.5675 23.8062 17.2362 26.3169 17.6398 27.318C17.7977 27.7118 17.1161 32.1058 16.4936 30.2973C15.7599 28.162 15.1232 26.1616 14.8683 25.0802Z" fill="url(#paint6_linear_10_2)"/>
<path id="path3253" fill-rule="evenodd" clip-rule="evenodd" d="M22.9794 2.55108C22.292 4.37166 17.8821 16.0863 16.6608 20.8464C16.5768 21.1707 16.8931 21.87 17.1076 22.2868C18.7784 15.7124 20.1354 11.6351 22.9794 2.55108Z" fill="url(#paint7_linear_10_2)"/>
<path id="path2475" fill-rule="evenodd" clip-rule="evenodd" d="M24.4048 3.80366C24.3917 3.83289 24.3793 3.85915 24.3654 3.88602C24.3654 3.88602 20.0885 15.9297 18.8599 21.6242C18.7397 22.1843 19.1099 23.7271 19.1099 23.7271C20.4816 16.6653 22.6241 10.427 24.4048 3.80366Z" fill="url(#paint8_linear_10_2)"/>
<path id="path3250" fill-rule="evenodd" clip-rule="evenodd" d="M25.9245 5.39525C25.9214 5.40181 25.9152 5.4096 25.9105 5.41678C23.8816 11.8983 20.024 23.3647 20.8207 25.6433L25.9245 5.39525Z" fill="url(#paint9_linear_10_2)"/>
<path id="path3259" fill-rule="evenodd" clip-rule="evenodd" d="M16.8019 18.5218C16.4753 19.4866 16.1487 20.4515 15.8175 21.4129C15.5796 21.4352 15.3695 21.345 15.1901 21.1358C15.2081 21.2115 15.233 21.2923 15.2804 21.3936C15.4288 21.7058 15.9384 21.9389 16.0413 21.826C16.3114 21.5241 16.9744 18.8857 16.8019 18.5218Z" fill="#F89A44" fill-opacity="0.37647"/>
<path id="path3270" fill-rule="evenodd" clip-rule="evenodd" d="M18.7474 20.3849C18.735 20.3631 18.7163 20.3492 18.6962 20.3465L18.6915 20.3483C18.4138 21.3232 18.1361 22.2981 17.8398 23.2804C17.4585 23.2607 17.2653 23.1051 17.1185 22.899C17.1279 22.9967 17.1591 23.1232 17.2291 23.2716C17.3783 23.5861 17.894 23.8167 17.9961 23.7015C18.2686 23.4013 18.7549 20.7636 18.7474 20.3849Z" fill="#F89A44" fill-opacity="0.37647"/>
<path id="path3272" fill-rule="evenodd" clip-rule="evenodd" d="M20.6941 22.0074C20.6754 21.9294 20.6328 21.9116 20.5693 21.9581C20.2956 23.0355 20.049 24.0675 19.8503 25.011C19.3245 24.8191 19.1707 24.5811 19.0503 24.3432C19.0342 24.4537 19.0538 24.6195 19.1626 24.8486C19.3102 25.1637 19.819 25.3891 19.9211 25.2739C20.1843 24.9827 20.6631 22.5348 20.6941 22.0074Z" fill="#F89A44" fill-opacity="0.37647"/>
<path id="path3299" fill-rule="evenodd" clip-rule="evenodd" d="M17.005 10.4339C15.0089 15.3943 13.4897 20.5368 13.4606 23.132C13.4414 24.9866 14.9997 29.4535 15.153 29.8919L15.2654 29.8981C15.2654 29.8981 14.3935 26.3975 14.1605 24.8724C13.9704 23.6158 13.9966 21.7504 14.1633 20.5927C14.5702 17.7462 15.914 13.5222 17.005 10.4339Z" fill="#F89A44" fill-opacity="0.37647"/>
<path id="path2413" fill-rule="evenodd" clip-rule="evenodd" d="M16.9367 23.1339C17.2185 23.4733 17.4644 23.6721 17.7607 23.7842C17.7607 23.7842 17.451 24.0297 17.2857 23.9217C17.0693 23.7807 16.9367 23.1339 16.9367 23.1339Z" fill="#F89A44" fill-opacity="0.50196"/>
<path id="path3185" fill-rule="evenodd" clip-rule="evenodd" d="M14.9453 21.2062C15.2271 21.5455 15.4731 21.7443 15.7677 21.857C15.7677 21.857 15.4596 22.102 15.2944 21.994C15.0779 21.8529 14.9453 21.2062 14.9453 21.2062Z" fill="#F89A44" fill-opacity="0.50196"/>
<path id="path3187" fill-rule="evenodd" clip-rule="evenodd" d="M19.0262 24.8279C19.3087 25.1697 19.5539 25.3661 19.8486 25.4788C19.8486 25.4788 19.5404 25.7237 19.3752 25.6157C19.1572 25.4753 19.0262 24.8279 19.0262 24.8279Z" fill="#F89A44" fill-opacity="0.50196"/>
<path id="path3258" fill-rule="evenodd" clip-rule="evenodd" d="M2.1899 75.9938C1.82248 77.1216 5.1495 78.664 5.1495 78.664L5.94648 74.7741C5.20282 73.326 4.02714 72.2146 4.14057 70.0984C4.14057 70.0984 2.56272 74.8504 2.1899 75.9938Z" fill="url(#paint10_linear_10_2)"/>
<path id="path3271" fill-rule="evenodd" clip-rule="evenodd" d="M7.76822 70.4166L7.67585 70.891C7.99649 71.8742 8.41998 72.112 9.18412 72.6499L9.28032 72.1393C8.62396 71.6361 8.14321 71.4744 7.76822 70.4166Z" fill="#F89A44" fill-opacity="0.25098"/>
<path id="path3273" fill-rule="evenodd" clip-rule="evenodd" d="M7.31786 70.3576C7.59003 71.0344 8.08787 71.8113 9.16091 72.6698L8.22812 79.3307L5.8031 77.6709L7.31786 70.3576Z" fill="url(#paint11_linear_10_2)"/>
<path id="path3283" fill-rule="evenodd" clip-rule="evenodd" d="M16.5273 31.1808C13.177 44.0582 10.154 57.1796 7.27296 70.4074L7.63168 70.8951L16.9382 31.2208C16.7613 31.088 16.6241 31.0757 16.5273 31.1808Z" fill="url(#paint12_linear_10_2)"/>
<path id="path3294" fill-rule="evenodd" clip-rule="evenodd" d="M13.3566 43.9336L6.17451 74.9026L4.14701 70.272L11.2308 48.1127C11.838 46.065 12.6071 45.0609 13.3566 43.9336Z" fill="url(#paint13_linear_10_2)"/>
<path id="path3341" fill-rule="evenodd" clip-rule="evenodd" d="M4.78579 81.9818C4.55892 82.1491 4.22246 82.0797 3.92788 82.0363C4.17052 82.6501 4.33673 81.7568 5.53392 83.3054C5.44591 82.9799 4.98546 82.3431 4.78579 81.9818Z" fill="white" fill-opacity="0.64314"/>
</g>
</g>
<g id="MDN Fo D" filter="url(#filter1_i_10_2)">
<path d="M29.8352 16.0909H36.2273L47.3409 43.2273H47.75L58.8636 16.0909H65.2557V51H60.2443V25.7386H59.9205L49.625 50.9489H45.4659L35.1705 25.7216H34.8466V51H29.8352V16.0909ZM84.2145 51H72.9134V16.0909H84.5724C87.9929 16.0909 90.9304 16.7898 93.3849 18.1875C95.8395 19.5739 97.7202 21.5682 99.027 24.1705C100.345 26.7614 101.004 29.8693 101.004 33.4943C101.004 37.1307 100.339 40.2557 99.0099 42.8693C97.6918 45.483 95.7827 47.4943 93.2827 48.9034C90.7827 50.3011 87.7599 51 84.2145 51ZM78.1804 46.3977H83.9247C86.5838 46.3977 88.794 45.8977 90.5554 44.8977C92.3168 43.8864 93.6349 42.4261 94.5099 40.517C95.3849 38.5966 95.8224 36.2557 95.8224 33.4943C95.8224 30.7557 95.3849 28.4318 94.5099 26.5227C93.6463 24.6136 92.3565 23.1648 90.6406 22.1761C88.9247 21.1875 86.794 20.6932 84.2486 20.6932H78.1804V46.3977ZM135.73 16.0909V51H130.889L113.145 25.3977H112.821V51H107.554V16.0909H112.429L130.19 41.7273H130.514V16.0909H135.73ZM153.368 51V16.0909H174.3V19.8409H157.595V31.6364H172.732V35.3864H157.595V51H153.368ZM190.062 51.4773C187.222 51.4773 184.881 50.9148 183.04 49.7898C181.21 48.6534 179.926 47.0739 179.188 45.0511C178.449 43.017 178.301 40.6591 178.744 37.9773C179.188 35.2955 180.114 32.9432 181.523 30.9205C182.932 28.8864 184.744 27.3068 186.96 26.1818C189.176 25.0455 191.71 24.4773 194.562 24.4773C197.392 24.4773 199.722 25.0455 201.551 26.1818C203.392 27.3068 204.682 28.8864 205.42 30.9205C206.17 32.9432 206.324 35.2955 205.881 37.9773C205.438 40.6591 204.506 43.017 203.085 45.0511C201.665 47.0739 199.847 48.6534 197.631 49.7898C195.426 50.9148 192.903 51.4773 190.062 51.4773ZM191.222 44.5227C192.04 44.5227 192.784 44.2557 193.455 43.7216C194.136 43.1875 194.716 42.4261 195.193 41.4375C195.682 40.4489 196.04 39.2727 196.267 37.9091C196.494 36.5341 196.528 35.358 196.369 34.3807C196.21 33.392 195.881 32.6307 195.381 32.0966C194.881 31.5625 194.222 31.2955 193.403 31.2955C192.585 31.2955 191.835 31.5625 191.153 32.0966C190.472 32.6307 189.892 33.392 189.415 34.3807C188.938 35.358 188.585 36.5341 188.358 37.9091C188.131 39.2727 188.091 40.4489 188.239 41.4375C188.398 42.4261 188.727 43.1875 189.227 43.7216C189.739 44.2557 190.403 44.5227 191.222 44.5227ZM260.699 51H249.398V16.0909H261.057C264.477 16.0909 267.415 16.7898 269.869 18.1875C272.324 19.5739 274.205 21.5682 275.511 24.1705C276.83 26.7614 277.489 29.8693 277.489 33.4943C277.489 37.1307 276.824 40.2557 275.494 42.8693C274.176 45.483 272.267 47.4943 269.767 48.9034C267.267 50.3011 264.244 51 260.699 51ZM254.665 46.3977H260.409C263.068 46.3977 265.278 45.8977 267.04 44.8977C268.801 43.8864 270.119 42.4261 270.994 40.517C271.869 38.5966 272.307 36.2557 272.307 33.4943C272.307 30.7557 271.869 28.4318 270.994 26.5227C270.131 24.6136 268.841 23.1648 267.125 22.1761C265.409 21.1875 263.278 20.6932 260.733 20.6932H254.665V46.3977Z" fill="#F89A44"/>
</g>
<g id="o" filter="url(#filter2_i_10_2)">
<path d="M220.75 31.4773C217.909 31.4773 215.568 30.9148 213.727 29.7898C211.898 28.6534 210.614 27.0739 209.875 25.0511C209.136 23.017 208.989 20.6591 209.432 17.9773C209.875 15.2955 210.801 12.9432 212.21 10.9205C213.619 8.88636 215.432 7.30682 217.648 6.18182C219.864 5.04545 222.398 4.47727 225.25 4.47727C228.08 4.47727 230.409 5.04545 232.239 6.18182C234.08 7.30682 235.369 8.88636 236.108 10.9205C236.858 12.9432 237.011 15.2955 236.568 17.9773C236.125 20.6591 235.193 23.017 233.773 25.0511C232.352 27.0739 230.534 28.6534 228.318 29.7898C226.114 30.9148 223.591 31.4773 220.75 31.4773ZM221.909 24.5227C222.727 24.5227 223.472 24.2557 224.142 23.7216C224.824 23.1875 225.403 22.4261 225.881 21.4375C226.369 20.4489 226.727 19.2727 226.955 17.9091C227.182 16.5341 227.216 15.358 227.057 14.3807C226.898 13.392 226.568 12.6307 226.068 12.0966C225.568 11.5625 224.909 11.2955 224.091 11.2955C223.273 11.2955 222.523 11.5625 221.841 12.0966C221.159 12.6307 220.58 13.392 220.102 14.3807C219.625 15.358 219.273 16.5341 219.045 17.9091C218.818 19.2727 218.778 20.4489 218.926 21.4375C219.085 22.4261 219.415 23.1875 219.915 23.7216C220.426 24.2557 221.091 24.5227 221.909 24.5227Z" fill="#F89A44"/>
</g>
<defs>
<filter id="filter0_i_10_2" x="0.791367" y="0.68974" width="25.6111" height="88.1781" filterUnits="userSpaceOnUse" color-interpolation-filters="sRGB">
<feFlood flood-opacity="0" result="BackgroundImageFix"/>
<feBlend mode="normal" in="SourceGraphic" in2="BackgroundImageFix" result="shape"/>
<feColorMatrix in="SourceAlpha" type="matrix" values="0 0 0 0 0 0 0 0 0 0 0 0 0 0 0 0 0 0 127 0" result="hardAlpha"/>
<feOffset dy="4"/>
<feGaussianBlur stdDeviation="2"/>
<feComposite in2="hardAlpha" operator="arithmetic" k2="-1" k3="1"/>
<feColorMatrix type="matrix" values="0 0 0 0 0 0 0 0 0 0 0 0 0 0 0 0 0 0 0.25 0"/>
<feBlend mode="normal" in2="shape" result="effect1_innerShadow_10_2"/>
</filter>
<filter id="filter1_i_10_2" x="29.8352" y="16.0909" width="247.653" height="39.3864" filterUnits="userSpaceOnUse" color-interpolation-filters="sRGB">
<feFlood flood-opacity="0" result="BackgroundImageFix"/>
<feBlend mode="normal" in="SourceGraphic" in2="BackgroundImageFix" result="shape"/>
<feColorMatrix in="SourceAlpha" type="matrix" values="0 0 0 0 0 0 0 0 0 0 0 0 0 0 0 0 0 0 127 0" result="hardAlpha"/>
<feOffset dy="4"/>
<feGaussianBlur stdDeviation="2"/>
<feComposite in2="hardAlpha" operator="arithmetic" k2="-1" k3="1"/>
<feColorMatrix type="matrix" values="0 0 0 0 0 0 0 0 0 0 0 0 0 0 0 0 0 0 0.25 0"/>
<feBlend mode="normal" in2="shape" result="effect1_innerShadow_10_2"/>
</filter>
<filter id="filter2_i_10_2" x="208.767" y="4.47727" width="28.4659" height="31" filterUnits="userSpaceOnUse" color-interpolation-filters="sRGB">
<feFlood flood-opacity="0" result="BackgroundImageFix"/>
<feBlend mode="normal" in="SourceGraphic" in2="BackgroundImageFix" result="shape"/>
<feColorMatrix in="SourceAlpha" type="matrix" values="0 0 0 0 0 0 0 0 0 0 0 0 0 0 0 0 0 0 127 0" result="hardAlpha"/>
<feOffset dy="4"/>
<feGaussianBlur stdDeviation="2"/>
<feComposite in2="hardAlpha" operator="arithmetic" k2="-1" k3="1"/>
<feColorMatrix type="matrix" values="0 0 0 0 0 0 0 0 0 0 0 0 0 0 0 0 0 0 0.25 0"/>
<feBlend mode="normal" in2="shape" result="effect1_innerShadow_10_2"/>
</filter>
<linearGradient id="paint0_linear_10_2" x1="24.4392" y1="0.888431" x2="10.5323" y2="17.2179" gradientUnits="userSpaceOnUse">
<stop stop-color="#F89A44" stop-opacity="0.50196"/>
<stop offset="1" stop-color="white" stop-opacity="0"/>
</linearGradient>
<linearGradient id="paint1_linear_10_2" x1="2.90737" y1="81.0396" x2="34.7107" y2="38.5769" gradientUnits="userSpaceOnUse">
<stop stop-opacity="0.25098"/>
<stop offset="1" stop-color="#808080" stop-opacity="0"/>
</linearGradient>
<radialGradient id="paint2_radial_10_2" cx="0" cy="0" r="1" gradientUnits="userSpaceOnUse" gradientTransform="translate(16.7703 26.0426) rotate(44.7512) scale(9.13894 2.83769)">
<stop stop-opacity="0.22745"/>
<stop offset="1" stop-opacity="0"/>
</radialGradient>
<linearGradient id="paint3_linear_10_2" x1="17.6442" y1="25.3598" x2="16.9499" y2="26.1689" gradientUnits="userSpaceOnUse">
<stop stop-opacity="0.50196"/>
<stop offset="1" stop-opacity="0"/>
</linearGradient>
<linearGradient id="paint4_linear_10_2" x1="0.226992" y1="111.62" x2="46.0575" y2="45.0226" gradientUnits="userSpaceOnUse">
<stop stop-color="#F89A44" stop-opacity="0.37647"/>
<stop offset="1" stop-color="white" stop-opacity="0"/>
</linearGradient>
<linearGradient id="paint5_linear_10_2" x1="19.3341" y1="8.7632" x2="9.08304" y2="19.7073" gradientUnits="userSpaceOnUse">
<stop stop-color="#F89A44" stop-opacity="0.50196"/>
<stop offset="1" stop-color="white" stop-opacity="0"/>
</linearGradient>
<linearGradient id="paint6_linear_10_2" x1="15.9348" y1="22.1458" x2="14.5106" y2="29.5253" gradientUnits="userSpaceOnUse">
<stop stop-color="#F89A44" stop-opacity="0.37647"/>
<stop offset="1" stop-color="white" stop-opacity="0"/>
</linearGradient>
<linearGradient id="paint7_linear_10_2" x1="21.3771" y1="11.0975" x2="11.8535" y2="20.0095" gradientUnits="userSpaceOnUse">
<stop stop-color="#F89A44" stop-opacity="0.50196"/>
<stop offset="1" stop-color="white" stop-opacity="0"/>
</linearGradient>
<linearGradient id="paint8_linear_10_2" x1="22.9174" y1="11.3063" x2="13.8488" y2="20.5719" gradientUnits="userSpaceOnUse">
<stop stop-color="#F89A44" stop-opacity="0.50196"/>
<stop offset="1" stop-color="white" stop-opacity="0"/>
</linearGradient>
<linearGradient id="paint9_linear_10_2" x1="24.7666" y1="14.1472" x2="15.7598" y2="22.6468" gradientUnits="userSpaceOnUse">
<stop stop-color="#F89A44" stop-opacity="0.37647"/>
<stop offset="1" stop-color="white" stop-opacity="0"/>
</linearGradient>
<linearGradient id="paint10_linear_10_2" x1="3.80352" y1="77.7162" x2="6.54688" y2="75.1442" gradientUnits="userSpaceOnUse">
<stop stop-opacity="0.25098"/>
<stop offset="1" stop-color="white" stop-opacity="0.12549"/>
</linearGradient>
<linearGradient id="paint11_linear_10_2" x1="7.27226" y1="77.4195" x2="6.73077" y2="77.9372" gradientUnits="userSpaceOnUse">
<stop stop-color="#F89A44" stop-opacity="0.50196"/>
<stop offset="1" stop-color="white" stop-opacity="0"/>
</linearGradient>
<linearGradient id="paint12_linear_10_2" x1="10.1389" y1="56.8999" x2="11.0835" y2="57.1186" gradientUnits="userSpaceOnUse">
<stop stop-color="#C69537"/>
<stop offset="1" stop-color="white" stop-opacity="0"/>
</linearGradient>
<linearGradient id="paint13_linear_10_2" x1="9.24485" y1="61.2554" x2="7.36045" y2="61.0356" gradientUnits="userSpaceOnUse">
<stop stop-color="#F89A44" stop-opacity="0.37647"/>
<stop offset="1" stop-color="white" stop-opacity="0"/>
</linearGradient>
</defs>
</svg>
